<?xml version="1.0" encoding="utf-8"?>
<!-- Generator: Adobe Illustrator 24.1.1, SVG Export Plug-In . SVG Version: 6.00 Build 0)  -->
<svg version="1.1" id="Capa_1" xmlns="http://www.w3.org/2000/svg" xmlns:xlink="http://www.w3.org/1999/xlink" x="0px" y="0px"
	 viewBox="0 0 512 512" style="enable-background:new 0 0 512 512;" xml:space="preserve">
<style type="text/css">
	.st0{fill:#3B5999;}
	.st1{fill:#FFFFFF;}
</style>
<path class="st0" d="M275.1,230.5h-38.3c-3.5,0-6.4,2.9-6.4,6.4v38.3c0,3.5,2.9,6.4,6.4,6.4h38.3c3.5,0,6.4-2.9,6.4-6.4v-38.3
	C281.5,233.4,278.6,230.5,275.1,230.5z"/>
<path class="st1" d="M265.6,256v-6.4c0-1.8,1.4-1.6,3.2-1.6h3.2v-8h-6.4c-5.3,0-9.6,4.3-9.6,9.6v6.4h-6.4v8h6.4v17.5h9.6V264h4.8
	l3.2-8H265.6z"/>
</svg>
