<?xml version="1.0" encoding="utf-8"?>
<!-- Generator: Adobe Illustrator 24.1.1, SVG Export Plug-In . SVG Version: 6.00 Build 0)  -->
<svg version="1.1" id="Capa_1" xmlns="http://www.w3.org/2000/svg" xmlns:xlink="http://www.w3.org/1999/xlink" x="0px" y="0px"
	 viewBox="0 0 512 512" style="enable-background:new 0 0 512 512;" xml:space="preserve">
<style type="text/css">
	.st0{fill:url(#SVGID_1_);}
	.st1{fill:url(#SVGID_2_);}
	.st2{fill:url(#SVGID_3_);}
	.st3{fill:url(#SVGID_4_);}
	.st4{fill:url(#SVGID_5_);}
	.st5{fill:url(#SVGID_6_);}
	.st6{fill:url(#SVGID_7_);}
	.st7{fill:url(#SVGID_8_);}
	.st8{fill:#FFFFFF;}
</style>
<radialGradient id="SVGID_1_" cx="240.9547" cy="238.93" r="56.244" gradientTransform="matrix(1 0 0 -1 1.831055e-04 514)" gradientUnits="userSpaceOnUse">
	<stop  offset="0" style="stop-color:#FAE100"/>
	<stop  offset="5.440000e-02" style="stop-color:#FADC04"/>
	<stop  offset="0.1167" style="stop-color:#FBCE0E"/>
	<stop  offset="0.1829" style="stop-color:#FCB720"/>
	<stop  offset="0.2514" style="stop-color:#FE9838"/>
	<stop  offset="0.3054" style="stop-color:#FF7950"/>
	<stop  offset="0.4922" style="stop-color:#FF1C74"/>
	<stop  offset="1" style="stop-color:#6C1CD1"/>
</radialGradient>
<path class="st0" d="M280.6,239.6c-0.5-4.3-3.9-7.8-8.2-8.2c-10.9-1.2-21.8-1.2-32.8,0c-4.3,0.5-7.8,3.9-8.2,8.2
	c-1.2,10.9-1.2,21.8,0,32.8c0.5,4.3,3.9,7.8,8.2,8.2c10.9,1.2,21.8,1.2,32.8,0c4.3-0.5,7.8-3.9,8.2-8.2
	C281.8,261.5,281.8,250.5,280.6,239.6z"/>
<linearGradient id="SVGID_2_" gradientUnits="userSpaceOnUse" x1="250.0606" y1="261.341" x2="163.6606" y2="309.941" gradientTransform="matrix(1 0 0 -1 1.831055e-04 514)">
	<stop  offset="0" style="stop-color:#A1B5D8;stop-opacity:0"/>
	<stop  offset="0.3094" style="stop-color:#90A2BD;stop-opacity:0.3098"/>
	<stop  offset="0.7554" style="stop-color:#7C8B9C;stop-opacity:0.7569"/>
	<stop  offset="1" style="stop-color:#748290"/>
</linearGradient>
<path class="st1" d="M277.9,241.5c-0.4-3.9-3.5-6.9-7.3-7.3c-9.7-1-19.4-1-29.1,0c-3.9,0.4-6.9,3.5-7.3,7.3c-1,9.7-1,19.4,0,29.1
	c0.4,3.9,3.5,6.9,7.3,7.3c9.7,1,19.4,1,29.1,0c3.9-0.4,6.9-3.5,7.3-7.3C278.9,260.9,278.9,251.1,277.9,241.5z"/>
<linearGradient id="SVGID_3_" gradientUnits="userSpaceOnUse" x1="256.0002" y1="238.4799" x2="256.0002" y2="230.5303" gradientTransform="matrix(1 0 0 -1 1.831055e-04 514)">
	<stop  offset="0" style="stop-color:#FAE100;stop-opacity:0"/>
	<stop  offset="0.3068" style="stop-color:#FCA800;stop-opacity:0.3059"/>
	<stop  offset="0.6275" style="stop-color:#FE7300;stop-opacity:0.6275"/>
	<stop  offset="0.8685" style="stop-color:#FF5200;stop-opacity:0.8667"/>
	<stop  offset="1" style="stop-color:#FF4500"/>
</linearGradient>
<path class="st2" d="M231.3,271.3c0,0.4,0.1,0.7,0.1,1.1c0.5,4.3,3.9,7.8,8.2,8.2c10.9,1.2,21.8,1.2,32.8,0c4.3-0.5,7.8-3.9,8.2-8.2
	c0-0.4,0.1-0.7,0.1-1.1H231.3z"/>
<linearGradient id="SVGID_4_" gradientUnits="userSpaceOnUse" x1="253.0985" y1="260.9734" x2="240.4769" y2="273.5951" gradientTransform="matrix(1 0 0 -1 1.831055e-04 514)">
	<stop  offset="0" style="stop-color:#833AB4;stop-opacity:0"/>
	<stop  offset="1" style="stop-color:#833AB4"/>
</linearGradient>
<path class="st3" d="M280.6,272.4c0.6-5.9,0.9-11.7,0.9-17.6l-11.7-11.7c-1.5-1.7-3.6-2.7-6.1-2.8c-5.1-0.2-10.3-0.2-15.4,0
	c-4.3,0.1-7.3,3-8,7.2c-0.1,0.7-0.2,1.5-0.3,2.2v12.4c0.1,0.4,0.1,0.8,0.2,1.2c0.2,2.6,1.2,4.8,2.9,6.3l11.9,11.9
	c5.8,0,11.6-0.2,17.5-0.9C276.7,280.2,280.2,276.7,280.6,272.4z"/>
<linearGradient id="SVGID_5_" gradientUnits="userSpaceOnUse" x1="265.4529" y1="236.8542" x2="259.1532" y2="266.5527" gradientTransform="matrix(1 0 0 -1 1.831055e-04 514)">
	<stop  offset="0" style="stop-color:#833AB4;stop-opacity:0"/>
	<stop  offset="1" style="stop-color:#833AB4"/>
</linearGradient>
<path class="st4" d="M280.6,272.4c-0.5,4.3-3.9,7.8-8.2,8.2c-5.8,0.6-11.6,0.9-17.5,0.9l-11.8-11.8c1.4,1.2,3.2,1.9,5.2,2
	c5.1,0.2,10.3,0.2,15.4,0c4.6-0.2,8-3.6,8.2-8.3c0.2-4.9,0.2-9.9,0-14.8c-0.1-2.1-0.8-4-2.1-5.5l11.7,11.7
	C281.5,260.6,281.3,266.5,280.6,272.4z"/>
<linearGradient id="SVGID_6_" gradientUnits="userSpaceOnUse" x1="267.85" y1="246.15" x2="242.5469" y2="271.4532" gradientTransform="matrix(1 0 0 -1 1.831055e-04 514)">
	<stop  offset="0" style="stop-color:#833AB4;stop-opacity:0"/>
	<stop  offset="1" style="stop-color:#833AB4"/>
</linearGradient>
<path class="st5" d="M262,250.5c-1.5-1.6-3.6-2.6-6-2.6c-4.5,0-8.2,3.7-8.2,8.2c0,2.4,1,4.5,2.6,6l18.9,18.9c1-0.1,2-0.2,3-0.3
	c4.3-0.5,7.8-3.9,8.2-8.2c0.1-1,0.2-2,0.3-3L262,250.5z"/>
<linearGradient id="SVGID_7_" gradientUnits="userSpaceOnUse" x1="269.7268" y1="261.4601" x2="261.3595" y2="269.8274" gradientTransform="matrix(1 0 0 -1 1.831055e-04 514)">
	<stop  offset="0" style="stop-color:#833AB4;stop-opacity:0"/>
	<stop  offset="1" style="stop-color:#833AB4"/>
</linearGradient>
<path class="st6" d="M281.4,261.5l-15.2-15.2c-0.4-0.5-0.9-0.8-1.5-0.8c-1.1,0-1.9,0.9-1.9,1.9c0,0.6,0.3,1.2,0.8,1.5l17.7,17.7
	C281.2,264.9,281.3,263.2,281.4,261.5z"/>
<linearGradient id="SVGID_8_" gradientUnits="userSpaceOnUse" x1="266.1261" y1="268.0557" x2="245.4954" y2="247.425" gradientTransform="matrix(1 0 0 -1 1.831055e-04 514)">
	<stop  offset="0" style="stop-color:#833AB4"/>
	<stop  offset="9.220000e-02" style="stop-color:#9C3495"/>
	<stop  offset="0.2927" style="stop-color:#DC2546"/>
	<stop  offset="0.392" style="stop-color:#FD1D1D"/>
	<stop  offset="0.5589" style="stop-color:#FC6831"/>
	<stop  offset="0.6887" style="stop-color:#FC9B40"/>
	<stop  offset="0.7521" style="stop-color:#FCAF45"/>
	<stop  offset="0.7806" style="stop-color:#FDB750"/>
	<stop  offset="0.8656" style="stop-color:#FECB6A"/>
	<stop  offset="0.9415" style="stop-color:#FFD87A"/>
	<stop  offset="1" style="stop-color:#FFDC80"/>
</linearGradient>
<path class="st7" d="M240,249.8c0.1-0.8,0.2-1.5,0.3-2.2c0.8-4.2,3.8-7.1,8-7.2c5.1-0.2,10.3-0.2,15.4,0c4.6,0.2,8,3.6,8.2,8.3
	c0.2,4.9,0.2,9.9,0,14.8c-0.1,4.6-3.5,8.1-8.2,8.3c-5.1,0.2-10.3,0.2-15.4,0c-4.6-0.2-7.9-3.6-8.2-8.3c0-0.4-0.1-0.8-0.2-1.2
	C240,258.1,240,253.9,240,249.8z M256,268.9c2.4,0,4.7,0.1,7.1,0c3.7-0.1,5.9-2.3,6-6c0.1-4.6,0.1-9.2,0-13.8c-0.1-3.7-2.4-5.9-6-6
	c-4.7-0.1-9.4-0.1-14,0c-3.7,0.1-5.9,2.3-6,5.9c-0.1,4.6-0.1,9.3,0,13.9c0.1,3.6,2.4,5.8,6,5.9C251.4,269,253.7,268.9,256,268.9z"/>
<g>
	<path class="st8" d="M240,249.8c0.1-0.8,0.2-1.5,0.3-2.2c0.8-4.2,3.8-7.1,8-7.2c5.1-0.2,10.3-0.2,15.4,0c4.6,0.2,8,3.6,8.2,8.3
		c0.2,4.9,0.2,9.9,0,14.8c-0.1,4.6-3.5,8.1-8.2,8.3c-5.1,0.2-10.3,0.2-15.4,0c-4.6-0.2-7.9-3.6-8.2-8.3c0-0.4-0.1-0.8-0.2-1.2
		C240,258.1,240,253.9,240,249.8z M256,268.9c2.4,0,4.7,0.1,7.1,0c3.7-0.1,5.9-2.3,6-6c0.1-4.6,0.1-9.2,0-13.8c-0.1-3.7-2.4-5.9-6-6
		c-4.7-0.1-9.4-0.1-14,0c-3.7,0.1-5.9,2.3-6,5.9c-0.1,4.6-0.1,9.3,0,13.9c0.1,3.6,2.4,5.8,6,5.9C251.4,269,253.7,268.9,256,268.9z"
		/>
	<path class="st8" d="M256,247.8c-4.5,0-8.2,3.7-8.2,8.2c0,4.5,3.7,8.2,8.2,8.2c4.5,0,8.2-3.7,8.2-8.2
		C264.2,251.5,260.5,247.8,256,247.8z M256,261.4c-3,0-5.4-2.4-5.4-5.4s2.4-5.4,5.4-5.4s5.4,2.4,5.4,5.4S259,261.4,256,261.4z"/>
	<path class="st8" d="M266.6,247.5c0,1.1-0.9,1.9-1.9,1.9s-1.9-0.9-1.9-1.9c0-1.1,0.9-1.9,1.9-1.9S266.6,246.4,266.6,247.5z"/>
</g>
</svg>
