<?xml version="1.0" encoding="utf-8"?>
<!-- Generator: Adobe Illustrator 24.1.1, SVG Export Plug-In . SVG Version: 6.00 Build 0)  -->
<svg version="1.1" id="Capa_1" xmlns="http://www.w3.org/2000/svg" xmlns:xlink="http://www.w3.org/1999/xlink" x="0px" y="0px"
	 viewBox="0 0 512 512" style="enable-background:new 0 0 512 512;" xml:space="preserve">
<style type="text/css">
	.st0{fill:#4CAF50;}
	.st1{fill:#FAFAFA;}
</style>
<path class="st0" d="M256,230.5L256,230.5L256,230.5c-14.1,0-25.5,11.4-25.5,25.5c0,5.6,1.8,10.7,4.9,14.9l-3.2,9.5l9.8-3.1
	c4,2.7,8.8,4.2,14,4.2c14.1,0,25.5-11.4,25.5-25.5S270.1,230.5,256,230.5z"/>
<path class="st1" d="M270.8,266.5c-0.6,1.7-3.1,3.2-5,3.6c-1.3,0.3-3.1,0.5-8.9-1.9c-7.5-3.1-12.3-10.7-12.7-11.2
	c-0.4-0.5-3-4-3-7.7s1.9-5.4,2.6-6.2c0.6-0.6,1.6-0.9,2.6-0.9c0.3,0,0.6,0,0.9,0c0.7,0,1.1,0.1,1.6,1.3c0.6,1.5,2.1,5.1,2.3,5.5
	c0.2,0.4,0.4,0.9,0.1,1.4c-0.2,0.5-0.4,0.7-0.8,1.2s-0.7,0.8-1.1,1.2c-0.3,0.4-0.7,0.8-0.3,1.6c0.4,0.7,1.9,3.2,4.1,5.1
	c2.8,2.5,5.2,3.3,6,3.7c0.6,0.3,1.3,0.2,1.8-0.3c0.6-0.6,1.3-1.6,2-2.6c0.5-0.7,1.2-0.8,1.8-0.6c0.7,0.2,4.3,2,5.1,2.4
	c0.7,0.4,1.2,0.6,1.4,0.9C271.5,263.3,271.5,264.8,270.8,266.5z"/>
</svg>
